<svg width="112" height="68" viewBox="0 0 112 68" fill="none" xmlns="http://www.w3.org/2000/svg">
<path d="M26.6037 4.30615C11.5737 2.7149 -1.05407 26.3776 5.10966 44.6653C11.1153 64.5086 33.7157 69.8898 44.4627 53.9984C54.8778 40.4192 58.8922 19.5249 71.6464 8.80452C84.606 -2.96691 105.468 8.14868 107.997 29.0682C110.462 49.1006 94.2309 68.5866 79.5486 62.7009C68.6909 59.4427 60.8993 47.1037 56.4741 34.1131C51.0216 21.711 43.8938 8.46819 32.7674 5.10492C30.7919 4.50795 28.7531 4.27252 26.7301 4.27672L26.6037 4.30615Z" stroke="#00979C" stroke-width="7"/>
<path d="M17.7532 32.6837H36.7185" stroke="#00979C" stroke-width="7"/>
<path d="M83.6578 22.1735V43.1939M75.9136 32.6837H91.718H75.9136Z" stroke="#00979C" stroke-width="7"/>
</svg>
