<svg width="78" height="71" viewBox="0 0 78 71" fill="none" xmlns="http://www.w3.org/2000/svg">
<g clip-path="url(#clip0_7_424)">
<path d="M77.7598 58.8582C77.7598 65.3326 71.9435 70.6299 64.8348 70.6299H13.1351C6.02642 70.6299 0.210205 65.3326 0.210205 58.8582V11.7716C0.210205 5.29724 6.02642 0 13.1351 0H64.8348C71.9435 0 77.7598 5.29724 77.7598 11.7716V58.8582Z" fill="#563D7C"/>
<path d="M21.2827 15.3495H43.2678C47.3226 15.3495 50.5792 16.192 53.0248 17.8885C55.4704 19.585 56.6996 22.1355 56.6996 25.5631C56.6996 27.6405 56.142 29.4178 55.0269 30.895C53.9118 32.3722 52.3152 33.5263 50.2371 34.3341V34.4496C53.0248 34.992 55.141 36.1922 56.5728 38.0503C58.0047 39.9199 58.727 42.2512 58.727 45.0671C58.727 46.6828 58.4102 48.1947 57.7766 49.5911C57.1431 50.9991 56.1547 52.2109 54.7988 53.2265C53.443 54.2421 51.7197 55.0499 49.6035 55.6501C47.4874 56.2502 44.9784 56.5502 42.064 56.5502H21.2827V15.3495ZM29.2024 32.603H42.1273C44.0281 32.603 45.612 32.1183 46.8791 31.1258C48.1463 30.1333 48.7799 28.7253 48.7799 26.8788C48.7799 24.8014 48.2096 23.3357 47.0692 22.4933C45.9288 21.6508 44.2815 21.2238 42.1273 21.2238H29.2024V32.603ZM29.2024 50.6644H43.2044C45.612 50.6644 47.4874 50.0989 48.8052 48.9564C50.1357 47.8254 50.8073 46.2097 50.8073 44.1323C50.8073 42.0896 50.1484 40.5316 48.8052 39.4237C47.462 38.3157 45.612 37.7849 43.2044 37.7849H29.2024V50.6644Z" fill="white"/>
</g>
<defs>
<clipPath id="clip0_7_424">
<rect width="77.5496" height="70.6299" fill="white" transform="translate(0.210205)"/>
</clipPath>
</defs>
</svg>
