<svg width="25" height="26" viewBox="0 0 25 26" fill="none" xmlns="http://www.w3.org/2000/svg">
<path fill-rule="evenodd" clip-rule="evenodd" d="M24.5408 0.459043C24.6863 0.604186 24.8017 0.776609 24.8804 0.966438C24.9592 1.15627 24.9997 1.35977 24.9997 1.56529C24.9997 1.77082 24.9592 1.97432 24.8804 2.16415C24.8017 2.35398 24.6863 2.5264 24.5408 2.67154L2.67019 24.5465C2.37685 24.8399 1.979 25.0048 1.56416 25.0048C1.14932 25.0048 0.751468 24.8399 0.458131 24.5465C0.164795 24.2531 3.09081e-09 23.8552 0 23.4403C-3.09081e-09 23.0254 0.164795 22.6274 0.458131 22.334L22.3287 0.459043C22.4738 0.313533 22.6462 0.198086 22.836 0.119316C23.0258 0.0405457 23.2293 0 23.4348 0C23.6402 0 23.8437 0.0405457 24.0335 0.119316C24.2233 0.198086 24.3957 0.313533 24.5408 0.459043Z" fill="#121B24"/>
<path fill-rule="evenodd" clip-rule="evenodd" d="M0.458951 0.459043C0.31347 0.604186 0.198046 0.776609 0.119292 0.966438C0.0405375 1.15627 0 1.35977 0 1.56529C0 1.77082 0.0405375 1.97432 0.119292 2.16415C0.198046 2.35398 0.31347 2.5264 0.458951 2.67154L22.3295 24.5465C22.6229 24.8399 23.0207 25.0048 23.4356 25.0048C23.8504 25.0048 24.2483 24.8399 24.5416 24.5465C24.8349 24.2531 24.9997 23.8552 24.9997 23.4403C24.9997 23.0254 24.8349 22.6274 24.5416 22.334L2.67101 0.459043C2.52589 0.313533 2.3535 0.198086 2.16371 0.119316C1.97392 0.0405457 1.77046 0 1.56498 0C1.3595 0 1.15603 0.0405457 0.966243 0.119316C0.776453 0.198086 0.604064 0.313533 0.458951 0.459043Z" fill="#121B24"/>
</svg>
