<svg width="47" height="47" viewBox="0 0 47 47" fill="none" xmlns="http://www.w3.org/2000/svg">
<circle cx="23.5" cy="23.5" r="23.5" fill="#466380"/>
<path d="M13.0486 24.1567C12.9891 23.9092 11.6857 23.6824 11.0414 23.5998L9.85189 23.8474C8.66241 24.7961 6.19425 26.8175 5.83741 27.3125C5.48057 27.8075 5.68873 28.715 5.83741 29.1069C10.1245 32.7989 19.1298 40.5418 20.8545 41.9774C22.5792 43.4129 24.646 42.5755 25.4637 41.9774C29.9986 38.2028 39.3211 30.4187 40.3321 29.4782C41.3432 28.5376 40.7534 27.23 40.3321 26.6937C39.5144 26.0131 37.6261 24.4909 36.615 23.8474C35.604 23.2038 34.2113 23.7855 33.6413 24.1567C32.2536 25.3118 29.3592 27.6714 28.8835 27.8694C28.4077 28.0674 28.0409 27.7869 27.917 27.6219V6.76927C27.917 5.43273 26.5293 4.85108 25.8354 4.72733C24.7203 4.7067 22.1481 4.67783 20.7802 4.72733C19.4123 4.77683 18.8225 5.90299 18.6986 6.45989C18.6242 13.452 18.4607 27.5229 18.4012 27.8694C18.3417 28.2159 17.9304 28.1788 17.7321 28.1169C16.1957 26.9 13.1081 24.4043 13.0486 24.1567Z" fill="#F5FAFF"/>
</svg>
