<svg width="47" height="48" viewBox="0 0 47 48" fill="none" xmlns="http://www.w3.org/2000/svg">
<path fill-rule="evenodd" clip-rule="evenodd" d="M0 23.5C0 36.5 13 47.5 23 47.5C33 47.5 47 38 47 24.5C47 11 36.5 0.5 23 0.5C9.5 0.5 0 13 0 23.5ZM10 24L6 28C5.5 29 5.82756 29.4628 7 30.5C11.3333 34.3333 19.4 41.3 21 42.5C22.6 43.7 24.6667 43 25.5 42.5C30 38.8333 39.3 31.2 40.5 30C41.7 28.8 40.5 27.5 40.5 27.5C39.8333 27 38.2 25.7 37 24.5C35.8 23.3 34.5 24 34 24.5C32.8333 25.3333 30.3 27.2 29.5 28C28.7 28.8 28.1667 28.4401 28 28.1601V7.5C28 7.46948 28 5 25.5 5H21C18.5 5 18.5 7.5 18.5 7.5V28C18.5 28.8 17.8333 28.6667 17.5 28.5C16.6667 27.6667 14.5 26 13 24.5C11.5858 23.0858 10.3333 23.6667 10 24Z" fill="#466380"/>
</svg>
