<svg width="28" height="26" viewBox="0 0 28 26" fill="none" xmlns="http://www.w3.org/2000/svg">
<path d="M13.5165 5.70459C15.6541 5.70459 17.6684 6.58453 19.1445 7.96009V7.96415C19.1445 7.30359 19.6231 6.8039 20.2846 6.8039H20.4526C21.4965 6.8039 21.7056 7.71796 21.7056 8.0064L21.71 18.2723C21.6374 18.9451 22.4581 19.2928 22.914 18.8606C24.6859 17.1681 26.8095 10.1514 21.8106 6.0889C17.1486 2.29696 10.8915 2.9234 7.56474 5.05215C4.02887 7.32065 1.76875 12.3313 3.96412 17.0406C6.36162 22.1748 13.2155 23.7063 17.2947 22.1788C19.3597 21.4045 20.3117 23.9932 18.1654 24.8406C14.9305 26.1219 5.91537 25.9911 1.70487 19.2205C-1.13975 14.647 -0.989255 6.60159 6.55849 2.43346C12.3274 -0.757224 19.939 0.126776 24.5275 4.57521C29.3225 9.23003 29.0451 17.9392 24.3639 21.3249C22.2437 22.8646 19.0955 21.3672 19.1182 19.1238L19.0946 18.3926C17.6185 19.7503 15.6541 20.5465 13.5165 20.5465C9.28762 20.5465 5.56449 17.0885 5.56449 13.1658C5.56449 9.20078 9.28762 5.70621 13.5165 5.70621V5.70459ZM18.8356 12.8822C18.6755 10.0084 16.3786 8.27778 13.6031 8.27778H13.4981C10.2991 8.27778 8.52199 10.6178 8.52199 13.2706C8.52199 16.2452 10.6684 18.1237 13.485 18.1237C16.6289 18.1237 18.693 15.9876 18.8435 13.4607L18.8356 12.8822Z" fill="#466380"/>
</svg>
