<svg width="29" height="28" viewBox="0 0 29 28" fill="none" xmlns="http://www.w3.org/2000/svg">
<path d="M13.9989 5.77411C16.2129 5.77411 18.2991 6.75558 19.8279 8.28986V8.29439C19.8279 7.55761 20.3236 7.00026 21.0087 7.00026H21.1827C22.2639 7.00026 22.4805 8.0198 22.4805 8.34151L22.485 19.792C22.4098 20.5424 23.2599 20.9302 23.732 20.4481C25.5672 18.5604 27.7667 10.734 22.5892 6.20276C17.7607 1.9733 11.2802 2.67201 7.83459 5.04639C4.17244 7.57664 1.83159 13.1655 4.10538 18.4181C6.5885 24.1447 13.6872 25.853 17.9121 24.1492C20.0508 23.2856 21.0368 26.1729 18.8138 27.1181C15.4634 28.5473 6.12631 28.4014 1.76544 20.8496C-1.18078 15.7483 -1.02491 6.77461 6.79241 2.12555C12.7673 -1.4333 20.6508 -0.447298 25.4032 4.51442C30.3694 9.70633 30.0821 19.4204 25.2337 23.1968C23.0378 24.9141 19.7772 23.2439 19.8007 20.7417L19.7762 19.9261C18.2474 21.4404 16.2129 22.3286 13.9989 22.3286C9.619 22.3286 5.76291 18.4716 5.76291 14.0962C5.76291 9.6737 9.619 5.77592 13.9989 5.77592V5.77411ZM19.508 13.7799C19.3422 10.5745 16.9632 8.6442 14.0886 8.6442H13.9799C10.6666 8.6442 8.82603 11.2542 8.82603 14.2131C8.82603 17.5309 11.0491 19.6261 13.9663 19.6261C17.2224 19.6261 19.3603 17.2436 19.5162 14.4252L19.508 13.7799Z" fill="#466380"/>
</svg>
