<svg width="45" height="44" viewBox="0 0 45 44" fill="none" xmlns="http://www.w3.org/2000/svg">
<g clip-path="url(#clip0_7_496)">
<path d="M21.5665 10.3915C24.9772 10.3915 28.1911 11.8463 30.5463 14.1206V14.1273C30.5463 13.0352 31.31 12.209 32.3655 12.209H32.6335C34.2991 12.209 34.6328 13.7203 34.6328 14.1971L34.6398 31.1702C34.5239 32.2824 35.8334 32.8574 36.5608 32.1427C39.388 29.3446 42.7764 17.7435 34.8003 11.0269C27.3618 4.75753 17.3781 5.79324 12.0701 9.31278C6.42833 13.0634 2.82215 21.3477 6.32502 29.1337C10.1504 37.6222 21.0862 40.1544 27.5949 37.6289C30.8898 36.3487 32.4088 40.6286 28.9841 42.0297C23.8226 44.1481 9.43837 43.9318 2.72023 32.7378C-1.81856 25.1762 -1.57843 11.8745 10.4645 4.98321C19.6691 -0.292057 31.814 1.16949 39.1353 8.52424C46.786 16.2202 46.3434 30.6194 38.8742 36.2171C35.4914 38.7627 30.4681 36.2869 30.5044 32.578L30.4667 31.369C28.1115 33.6137 24.9772 34.9301 21.5665 34.9301C14.819 34.9301 8.87852 29.2129 8.87852 22.7273C8.87852 16.1718 14.819 10.3942 21.5665 10.3942V10.3915ZM30.0535 22.2585C29.798 17.5071 26.1332 14.6458 21.7047 14.6458H21.5372C16.4329 14.6458 13.5974 18.5146 13.5974 22.9006C13.5974 27.8185 17.0221 30.9243 21.5162 30.9243C26.5325 30.9243 29.8259 27.3927 30.0661 23.2149L30.0535 22.2585Z" fill="#F5FAFF"/>
</g>
<defs>
<clipPath id="clip0_7_496">
<rect width="44.6759" height="42.9867" fill="white" transform="translate(0 0.959961)"/>
</clipPath>
</defs>
</svg>
