<svg width="57" height="71" viewBox="0 0 57 71" fill="none" xmlns="http://www.w3.org/2000/svg">
<g clip-path="url(#clip0_7_439)">
<path d="M14.2688 70.63C21.9945 70.63 28.2647 65.3563 28.2647 58.8583V47.0867H14.2688C6.5431 47.0867 0.272949 52.3604 0.272949 58.8583C0.272949 65.3563 6.5431 70.63 14.2688 70.63Z" fill="#0ACF83"/>
<path d="M0.272949 35.3149C0.272949 28.8169 6.5431 23.5432 14.2688 23.5432H28.2647V47.0865H14.2688C6.5431 47.0865 0.272949 41.8128 0.272949 35.3149Z" fill="#A259FF"/>
<path d="M0.27124 11.7716C0.27124 5.2737 6.54139 0 14.2671 0H28.263V23.5433H14.2671C6.54139 23.5433 0.27124 18.2696 0.27124 11.7716Z" fill="#F24E1E"/>
<path d="M28.2654 0H42.2613C49.987 0 56.2571 5.2737 56.2571 11.7716C56.2571 18.2696 49.987 23.5433 42.2613 23.5433H28.2654V0Z" fill="#FF7262"/>
<path d="M56.2571 35.3149C56.2571 41.8128 49.987 47.0865 42.2613 47.0865C34.5355 47.0865 28.2654 41.8128 28.2654 35.3149C28.2654 28.8169 34.5355 23.5432 42.2613 23.5432C49.987 23.5432 56.2571 28.8169 56.2571 35.3149Z" fill="#1ABCFE"/>
</g>
<defs>
<clipPath id="clip0_7_439">
<rect width="55.9947" height="70.6299" fill="white" transform="translate(0.268066)"/>
</clipPath>
</defs>
</svg>
