<svg width="29" height="29" viewBox="0 0 29 29" fill="none" xmlns="http://www.w3.org/2000/svg">
<rect width="29" height="29" fill="#F5FAFF"/>
<path d="M14.4887 2.16084C7.48506 2.15801 1.8125 7.82774 1.8125 14.8257C1.8125 20.3595 5.36103 25.0635 10.3029 26.791C10.9685 26.9581 10.8665 26.4852 10.8665 26.1623V23.9675C7.02344 24.4178 6.86768 21.8746 6.60996 21.4498C6.08887 20.5606 4.85693 20.334 5.2251 19.9092C6.10019 19.4589 6.99228 20.0225 8.02598 21.5489C8.77363 22.6563 10.2321 22.4694 10.9713 22.2853C11.1327 21.6197 11.4782 21.025 11.954 20.5634C7.97217 19.8497 6.3126 17.4198 6.3126 14.5312C6.3126 13.1293 6.77422 11.8407 7.68047 10.8014C7.10273 9.088 7.73428 7.621 7.81924 7.40294C9.46465 7.25567 11.1752 8.58106 11.3083 8.68585C12.2429 8.4338 13.3105 8.30069 14.5057 8.30069C15.7064 8.30069 16.777 8.43946 17.72 8.69435C18.04 8.45079 19.626 7.31231 21.1553 7.45108C21.2374 7.66915 21.8548 9.10216 21.311 10.7929C22.2286 11.8351 22.6959 13.135 22.6959 14.5397C22.6959 17.434 21.025 19.8667 17.0318 20.5691C17.3739 20.9054 17.6454 21.3066 17.8307 21.749C18.016 22.1915 18.1112 22.6665 18.1108 23.1462V26.3323C18.1335 26.5871 18.1108 26.8392 18.5356 26.8392C23.5512 25.1485 27.162 20.4105 27.162 14.8285C27.162 7.82774 21.4866 2.16084 14.4887 2.16084Z" fill="#466380"/>
</svg>
