<svg width="27" height="25" viewBox="0 0 27 25" fill="none" xmlns="http://www.w3.org/2000/svg">
<path d="M13.4887 0.160844C6.48506 0.158012 0.8125 5.82774 0.8125 12.8257C0.8125 18.3595 4.36103 23.0635 9.30293 24.791C9.96846 24.9581 9.8665 24.4852 9.8665 24.1623V21.9675C6.02344 22.4178 5.86768 19.8746 5.60996 19.4498C5.08887 18.5606 3.85693 18.334 4.2251 17.9092C5.10019 17.4589 5.99228 18.0225 7.02598 19.5489C7.77363 20.6563 9.23213 20.4694 9.97129 20.2853C10.1327 19.6197 10.4782 19.025 10.954 18.5634C6.97217 17.8497 5.3126 15.4198 5.3126 12.5312C5.3126 11.1293 5.77422 9.84074 6.68047 8.80138C6.10273 7.088 6.73428 5.621 6.81924 5.40294C8.46465 5.25567 10.1752 6.58106 10.3083 6.68585C11.2429 6.4338 12.3105 6.30069 13.5057 6.30069C14.7064 6.30069 15.777 6.43946 16.72 6.69435C17.04 6.45079 18.626 5.31231 20.1553 5.45108C20.2374 5.66915 20.8548 7.10216 20.311 8.79288C21.2286 9.83507 21.6959 11.135 21.6959 12.5397C21.6959 15.434 20.025 17.8667 16.0318 18.5691C16.3739 18.9054 16.6454 19.3066 16.8307 19.749C17.016 20.1915 17.1112 20.6665 17.1108 21.1462V24.3323C17.1335 24.5871 17.1108 24.8392 17.5356 24.8392C22.5512 23.1485 26.162 18.4105 26.162 12.8285C26.162 5.82774 20.4866 0.160844 13.4887 0.160844Z" fill="#466380"/>
</svg>
