<svg width="48" height="48" viewBox="0 0 48 48" fill="none" xmlns="http://www.w3.org/2000/svg">
<rect width="46.2715" height="47.9467" transform="translate(0.800537)" fill="#121B24"/>
<path d="M23.9181 3.57251C12.7433 3.56783 3.69238 12.9418 3.69238 24.5117C3.69238 33.6609 9.35431 41.4382 17.2394 44.2944C18.3013 44.5707 18.1387 43.7887 18.1387 43.255V39.6262C12.0068 40.3707 11.7583 36.166 11.3471 35.4636C10.5156 33.9934 8.54998 33.6188 9.13741 32.9165C10.5337 32.172 11.9571 33.1038 13.6064 35.6275C14.7993 37.4583 17.1265 37.1493 18.3059 36.8449C18.5634 35.7446 19.1147 34.7613 19.8738 33.9981C13.5206 32.8181 10.8726 28.8007 10.8726 24.0248C10.8726 21.707 11.6091 19.5766 13.0551 17.8582C12.1333 15.0254 13.141 12.6 13.2765 12.2394C15.9019 11.996 18.6312 14.1873 18.8436 14.3605C20.3347 13.9438 22.0383 13.7237 23.9452 13.7237C25.8611 13.7237 27.5692 13.9532 29.0739 14.3746C29.5845 13.9719 32.115 12.0896 34.5551 12.319C34.6861 12.6796 35.6712 15.0488 34.8036 17.8441C36.2677 19.5672 37.0133 21.7164 37.0133 24.0388C37.0133 28.8241 34.3472 32.8462 27.9759 34.0074C28.5216 34.5635 28.9549 35.2268 29.2505 35.9583C29.5461 36.6899 29.6981 37.4752 29.6975 38.2683V43.5359C29.7336 43.9573 29.6975 44.374 30.3753 44.374C38.3779 41.5787 44.1392 33.7452 44.1392 24.5164C44.1392 12.9418 35.0838 3.57251 23.9181 3.57251Z" fill="#F5FAFF"/>
</svg>
