<svg width="85" height="100" viewBox="0 0 85 100" fill="none" xmlns="http://www.w3.org/2000/svg">
<g clip-path="url(#clip0_7_447)">
<path d="M30.8709 77.3125C30.8709 77.3125 27.6037 79.65 33.142 80.3187C39.8092 81.3187 43.3606 81.1531 50.7397 79.4844C52.2227 80.5528 53.7912 81.4477 55.4226 82.1562C38.8211 90.5062 17.8101 81.6562 30.8682 77.3125H30.8709ZM28.7459 66.4594C28.7459 66.4594 25.1972 69.6312 30.7328 70.3031C37.9711 71.1375 43.6475 71.3031 53.4437 68.9687C54.3964 70.1055 55.5629 70.9629 56.849 71.4719C36.8368 78.4844 14.4128 72.1406 28.7459 66.4625V66.4594ZM67.9176 85.4906C67.9176 85.4906 70.3295 87.8281 65.2215 89.6656C55.7122 93.0094 25.3406 94.0094 16.8247 89.6656C13.8443 88.1656 19.5208 85.9937 21.3403 85.6594C23.1864 85.1594 24.1825 85.1594 24.1825 85.1594C20.9153 82.4875 2.46763 90.6687 14.8165 93.0031C48.7368 99.5156 76.6965 90.1656 67.8964 85.4906H67.9176ZM32.4062 55.1031C32.4062 55.1031 16.9362 59.4469 26.8706 60.9469C31.1286 61.6156 39.5011 61.4469 47.3078 60.7812C53.6934 60.1125 60.0843 58.7812 60.0843 58.7812C60.0843 58.7812 57.8132 59.95 56.2514 61.1187C40.4998 65.9625 10.2664 63.7906 18.9257 58.7812C26.3048 54.6062 32.4089 55.1094 32.4089 55.1094L32.4062 55.1031ZM60.0843 73.3031C75.9793 63.6156 68.6003 54.2719 63.4897 55.4375C62.2147 55.7719 61.6436 56.1062 61.6436 56.1062C61.6436 56.1062 62.0686 55.1062 63.062 54.7719C73.1398 50.5969 81.0873 67.2937 59.7948 73.8031C59.7948 73.8031 59.9356 73.6375 60.079 73.3031H60.0843ZM33.9734 99.6844C49.3 100.853 72.7201 99.0156 73.2859 90.4969C73.2859 90.4969 72.1517 93.8406 60.6554 96.3406C47.5973 99.1781 31.4181 98.8406 21.9087 97.0094C21.9087 97.0094 23.8956 99.0094 33.9734 99.6812V99.6844Z" fill="#4E7896"/>
<path d="M50.4581 0.00311279C50.4581 0.00311279 59.2583 10.5219 42.0856 26.3844C28.3183 39.2406 38.9646 46.5875 42.0856 54.9375C33.9947 46.4219 28.1775 38.9062 32.1513 31.8969C37.9685 21.5406 54.0069 16.5625 50.4581 0.00311279ZM45.9425 47.925C50.0597 53.4344 44.8083 58.4437 44.8083 58.4437C44.8083 58.4437 55.3111 52.1 50.4847 44.25C46.086 36.7375 42.6753 33.0625 61.1283 20.5406C61.1283 20.5406 32.0344 29.0562 45.9425 47.925Z" fill="#F58219"/>
</g>
<defs>
<clipPath id="clip0_7_447">
<rect width="85" height="100" fill="white"/>
</clipPath>
</defs>
</svg>
