<svg width="79" height="71" viewBox="0 0 79 71" fill="none" xmlns="http://www.w3.org/2000/svg">
<path d="M0.76416 0H78.3137V70.6299H0.76416V0Z" fill="#F7DF1E"/>
<path d="M21.1549 59.0233L27.0895 55.7522C28.2344 57.6011 29.2759 59.1654 31.7741 59.1654C34.1688 59.1654 35.6786 58.3122 35.6786 54.9937V32.4258H42.9663V55.0875C42.9663 61.9622 38.5418 65.0913 32.0866 65.0913C26.2567 65.0913 22.8726 62.3413 21.1548 59.0227" fill="black"/>
<path d="M46.9246 58.3122L52.8585 55.1831C54.4205 57.5065 56.4507 59.2132 60.0424 59.2132C63.062 59.2132 64.9876 57.8381 64.9876 55.9416C64.9876 53.6659 63.0096 52.8598 59.6779 51.5328L57.8565 50.8211C52.5985 48.7828 49.1106 46.2226 49.1106 40.8177C49.1106 35.8395 53.275 32.0464 59.7823 32.0464C64.4153 32.0464 67.7469 33.5163 70.1412 37.3567L64.467 40.6753C63.2176 38.6368 61.8645 37.8309 59.7824 37.8309C57.6481 37.8309 56.2945 39.0636 56.2945 40.6753C56.2945 42.6666 57.6481 43.4728 60.7711 44.7056L62.5929 45.4167C68.7876 47.8348 72.2755 50.2999 72.2755 55.8468C72.2755 61.821 67.122 65.092 60.1987 65.092C53.4315 65.092 49.0587 62.1527 46.9247 58.3122" fill="black"/>
</svg>
