<svg width="20" height="22" viewBox="0 0 20 22" fill="none" xmlns="http://www.w3.org/2000/svg">
<path d="M11.051 10.5869L9.95953 9.76772L9.14089 9.23766C8.98929 9.14129 8.54965 8.9389 8.0039 8.90036V8.90036C7.16732 8.84126 6.4743 9.44262 5.88098 10.0353L5.18415 10.7315L1.50028 14.6346C1.33352 14.8113 1 15.2899 1 15.7911C1 16.2922 1 16.9636 1 17.2367C1.03032 17.5901 1.14554 18.3643 1.36384 18.6341C1.58214 18.904 2.12184 19.5176 2.3644 19.7906C2.59179 20.0476 3.15574 20.6098 3.59235 20.8025C4.02896 20.9953 4.92643 21.0114 5.32058 20.9953C5.68442 20.9792 6.48487 20.87 6.77594 20.5616C7.06701 20.2532 9.23185 17.8953 10.2779 16.7548M8.45869 12.6589L10.096 13.7191C10.4143 13.8797 11.1602 14.172 11.5968 14.0564C12.1426 13.9118 13.0976 13.96 13.6889 13.4299C14.1619 13.0059 16.8573 10.105 18.1459 8.7076C18.3278 8.54698 18.7371 8.01371 18.9191 7.16562C19.101 6.31753 18.9342 5.49513 18.8281 5.18995C18.7371 4.90083 18.4552 4.22621 18.0549 3.84071C17.5547 3.35884 16.8725 2.68422 16.1903 2.3951C15.5081 2.10598 14.9623 2.05779 14.7804 2.00961V2.00961C13.9739 1.79597 13.172 2.39916 12.5442 2.94867L12.4609 3.02153L9.23185 6.44281" stroke="#121B24" stroke-width="2"/>
</svg>
