<svg width="47" height="48" viewBox="0 0 47 48" fill="none" xmlns="http://www.w3.org/2000/svg">
<path d="M23.9365 0.946777C11.2338 0.946777 0.936523 11.4679 0.936523 24.4468C0.936523 37.4256 11.2338 47.9468 23.9365 47.9468C36.6392 47.9468 46.9365 37.4256 46.9365 24.4468C46.9365 11.4679 36.6392 0.946777 23.9365 0.946777ZM18.3063 34.187H13.6488V18.8729H18.3063V34.187ZM15.9488 16.9929C14.4778 16.9929 13.5266 15.928 13.5266 14.611C13.5266 13.2671 14.5065 12.2341 16.0087 12.2341C17.5109 12.2341 18.4309 13.2671 18.4596 14.611C18.4596 15.928 17.5109 16.9929 15.9488 16.9929ZM35.3167 34.187H30.6592V25.7001C30.6592 23.7246 29.9836 22.3832 28.2993 22.3832C27.0128 22.3832 26.2485 23.2914 25.9107 24.1653C25.7861 24.4762 25.755 24.9168 25.755 25.355V34.1846H21.0951V23.7565C21.0951 21.8446 21.0352 20.2462 20.9729 18.8704H25.0194L25.2327 20.9977H25.3261C25.9394 19.9989 27.4416 18.5253 29.9549 18.5253C33.0191 18.5253 35.3167 20.6231 35.3167 25.1322V34.187Z" fill="#F5FAFF"/>
</svg>
