<svg width="29" height="29" viewBox="0 0 29 29" fill="none" xmlns="http://www.w3.org/2000/svg">
<path d="M14.5 -0.03125C6.49177 -0.03125 0 6.46052 0 14.4688C0 22.477 6.49177 28.9688 14.5 28.9688C22.5082 28.9688 29 22.477 29 14.4688C29 6.46052 22.5082 -0.03125 14.5 -0.03125ZM10.9505 20.4787H8.01427V11.0295H10.9505V20.4787ZM9.46427 9.86953C8.53687 9.86953 7.93724 9.2125 7.93724 8.3999C7.93724 7.57068 8.555 6.93328 9.50203 6.93328C10.4491 6.93328 11.0291 7.57068 11.0472 8.3999C11.0472 9.2125 10.4491 9.86953 9.46427 9.86953ZM21.6745 20.4787H18.7382V15.2421C18.7382 14.0232 18.3123 13.1955 17.2505 13.1955C16.4394 13.1955 15.9576 13.7558 15.7446 14.2951C15.666 14.4869 15.6464 14.7588 15.6464 15.0291V20.4772H12.7086V14.0428C12.7086 12.8632 12.6709 11.8769 12.6316 11.028H15.1827L15.3171 12.3406H15.376C15.7627 11.7243 16.7097 10.8151 18.2942 10.8151C20.226 10.8151 21.6745 12.1095 21.6745 14.8917V20.4787Z" fill="#466380"/>
</svg>
