<svg width="30" height="28" viewBox="0 0 30 28" fill="none" xmlns="http://www.w3.org/2000/svg">
<path d="M14.5083 0.96875C6.49547 0.96875 0 7.00613 0 14.4538C0 21.9015 6.49547 27.9389 14.5083 27.9389C22.5211 27.9389 29.0165 21.9015 29.0165 14.4538C29.0165 7.00613 22.5211 0.96875 14.5083 0.96875ZM10.9568 20.0431H8.01884V11.2553H10.9568V20.0431ZM9.46967 10.1765C8.54174 10.1765 7.94177 9.56548 7.94177 8.80975C7.94177 8.03858 8.55988 7.4458 9.50745 7.4458C10.455 7.4458 11.0354 8.03858 11.0535 8.80975C11.0535 9.56548 10.455 10.1765 9.46967 10.1765ZM21.6868 20.0431H18.7489V15.173C18.7489 14.0394 18.3227 13.2697 17.2603 13.2697C16.4488 13.2697 15.9667 13.7908 15.7536 14.2923C15.675 14.4707 15.6553 14.7235 15.6553 14.975V20.0417H12.7159V14.0577C12.7159 12.9606 12.6781 12.0434 12.6388 11.2539H15.1914L15.3259 12.4746H15.3848C15.7717 11.9015 16.7193 11.0559 18.3046 11.0559C20.2375 11.0559 21.6868 12.2597 21.6868 14.8471V20.0431Z" fill="#466380"/>
</svg>
