<svg width="428" height="120" viewBox="0 0 428 120" fill="none" xmlns="http://www.w3.org/2000/svg">
<g clip-path="url(#clip0_3_3)">
<rect width="428" height="120" rx="5" fill="#C0B7AE"/>
<path d="M224 5L428 125L0 125L224 5Z" fill="#D4CFCC"/>
<path d="M204 115L0 -5H428L204 115Z" fill="#E7E7E9"/>
<path d="M153.23 52.3789C153.23 49.569 152.299 48.1641 150.438 48.1641C149.557 48.1641 148.508 48.7565 147.289 49.9414C145.799 51.3633 145.055 52.9036 145.055 54.5625V70H139.215V53.1406C139.215 51.8542 138.893 50.737 138.25 49.7891C137.607 48.8411 136.913 48.3672 136.168 48.3672C135.118 48.3672 133.967 49.0951 132.715 50.5508C131.462 52.0065 130.836 53.1914 130.836 54.1055V70H125.301V44.2031H130.836V48.8242C133.036 45.3711 135.271 43.6445 137.539 43.6445C138.792 43.6445 140.027 44.1523 141.246 45.168C142.499 46.1497 143.396 47.2839 143.938 48.5703C146.544 45.1172 148.999 43.3906 151.301 43.3906C153.671 43.3906 155.583 44.3385 157.039 46.2344C158.393 47.9271 159.07 49.8906 159.07 52.125V70H153.23V52.3789ZM165.747 66.5469L168.642 62.6875C170.47 65.125 172.501 66.3268 174.735 66.293C175.853 66.293 176.75 65.9883 177.427 65.3789C178.104 64.7357 178.442 63.9401 178.442 62.9922C178.442 61.2656 176.462 59.8268 172.501 58.6758C170.537 58.1341 169.099 57.4232 168.185 56.543C167 55.3919 166.407 53.8346 166.407 51.8711C166.407 49.0612 167.338 46.8776 169.2 45.3203C170.757 43.9661 172.67 43.2891 174.938 43.2891H175.04C177.376 43.2891 180.017 44.2201 182.962 46.082L180.931 49.9414C178.933 48.5195 177.105 47.8086 175.446 47.8086C174.329 47.8086 173.466 48.1133 172.856 48.7227C172.247 49.2982 171.942 49.9583 171.942 50.7031C171.942 51.651 172.315 52.2773 173.06 52.582C174.278 53.056 175.463 53.4792 176.614 53.8516C181.591 55.3411 184.096 57.8633 184.13 61.418C184.13 64.431 183.131 66.7839 181.134 68.4766C179.373 69.9661 177.173 70.7109 174.532 70.7109C170.774 70.7109 167.846 69.3229 165.747 66.5469ZM196.393 49.6875H208.225V54.3086L196.393 54.2578V65.3789H208.885V70H190.4V36.7383H209.037V41.1562H196.393V49.6875ZM243.39 52.3789C243.39 49.569 242.459 48.1641 240.597 48.1641C239.716 48.1641 238.667 48.7565 237.448 49.9414C235.959 51.3633 235.214 52.9036 235.214 54.5625V70H229.374V53.1406C229.374 51.8542 229.052 50.737 228.409 49.7891C227.766 48.8411 227.072 48.3672 226.327 48.3672C225.278 48.3672 224.127 49.0951 222.874 50.5508C221.621 52.0065 220.995 53.1914 220.995 54.1055V70H215.46V44.2031H220.995V48.8242C223.196 45.3711 225.43 43.6445 227.698 43.6445C228.951 43.6445 230.186 44.1523 231.405 45.168C232.658 46.1497 233.555 47.2839 234.097 48.5703C236.703 45.1172 239.158 43.3906 241.46 43.3906C243.83 43.3906 245.742 44.3385 247.198 46.2344C248.552 47.9271 249.229 49.8906 249.229 52.125V70H243.39V52.3789ZM269.058 58.4219C268.009 58.4219 266.739 58.5573 265.25 58.8281C263.591 59.099 262.491 59.4206 261.949 59.793C261.103 60.3008 260.68 61.3333 260.68 62.8906C260.68 63.8724 260.984 64.7357 261.594 65.4805C262.237 66.1914 262.982 66.5469 263.828 66.5469C265.927 66.5469 267.653 65.7174 269.008 64.0586L269.058 58.4219ZM269.566 67.207C268.111 68.4935 267.112 69.3229 266.57 69.6953C265.419 70.474 264.268 70.8464 263.117 70.8125C261.052 70.8125 259.325 70.1354 257.937 68.7812C256.414 67.2917 255.652 65.3451 255.652 62.9414C255.652 60.0638 256.482 58.0156 258.14 56.7969C259.224 56.0521 261.34 55.375 264.488 54.7656C266.113 54.4609 267.586 54.2409 268.906 54.1055V51.3633C268.906 50.5846 268.584 49.8737 267.941 49.2305C267.332 48.5534 266.621 48.2148 265.808 48.2148C262.66 48.2148 260.087 49.3997 258.09 51.7695L255.855 48.5703C256.803 47.013 258.344 45.7266 260.476 44.7109C262.338 43.7969 264.116 43.3568 265.808 43.3906C268.28 43.3906 270.345 44.1862 272.004 45.7773C273.696 47.3685 274.543 49.3997 274.543 51.8711V64.9219C274.543 65.125 274.661 65.362 274.898 65.6328C275.169 65.9036 275.44 66.0391 275.711 66.0391C276.828 66.0391 277.556 65.8698 277.894 65.5312L278.504 68.832C276.405 69.9831 274.695 70.5586 273.375 70.5586C272.867 70.5586 272.19 70.2539 271.344 69.6445C270.396 68.9336 269.803 68.1211 269.566 67.207ZM282.286 35.8242C282.286 34.707 282.658 33.793 283.403 33.082C284.182 32.3372 285.096 31.9648 286.145 31.9648C287.161 31.9648 288.041 32.3372 288.786 33.082C289.565 33.793 289.954 34.707 289.954 35.8242C289.954 36.9414 289.582 37.8724 288.837 38.6172C288.092 39.362 287.195 39.7344 286.145 39.7344C285.096 39.7344 284.182 39.362 283.403 38.6172C282.658 37.8724 282.286 36.9414 282.286 35.8242ZM283.352 44.2539H288.887V70H283.352V44.2539ZM296.529 33.6914H302.013V70H296.529V33.6914Z" fill="#674726"/>
<path d="M104 77H325M325 77L307.97 55M325 77L307.97 99" stroke="#674726" stroke-width="5"/>
</g>
<defs>
<clipPath id="clip0_3_3">
<rect width="428" height="120" rx="5" fill="white"/>
</clipPath>
</defs>
</svg>
