<svg width="87" height="71" viewBox="0 0 87 71" fill="none" xmlns="http://www.w3.org/2000/svg">
<path d="M0.987061 34.9974C0.987061 40.8978 7.27355 46.4062 17.1847 49.5109C15.2056 58.643 16.83 66.0033 22.2559 68.8714C27.8332 71.8191 36.1419 69.7787 44.0281 63.4607C51.7152 69.5236 59.4845 71.9097 64.9053 69.0335C70.4771 66.0772 72.172 58.2176 70.138 48.8005C80.4611 45.6724 86.2355 40.9755 86.2355 34.9974C86.2355 29.2337 79.9373 24.2473 70.1598 21.1624C72.3494 11.3561 70.4941 4.17436 64.8436 1.18789C59.3959 -1.69126 51.5365 0.818211 43.7363 7.03988C35.6215 0.43607 27.8396 -1.58016 22.1946 1.41502C16.7522 4.30235 15.1992 11.7965 17.1847 21.0976C7.60822 24.1578 0.987061 29.2567 0.987061 34.9974Z" fill="white"/>
<path d="M68.0882 24.2257C67.3028 23.9779 66.489 23.7435 65.6511 23.5218C65.7888 23.0066 65.9152 22.4981 66.0276 21.9983C67.8724 13.7907 66.6662 7.17856 62.5473 5.00157C58.5977 2.91413 52.1386 5.09062 45.6151 10.2939C44.9878 10.7942 44.3588 11.3239 43.73 11.8791C43.311 11.5118 42.8927 11.1568 42.4755 10.8173C35.6387 5.25365 28.7859 2.90907 24.6711 5.09235C20.7253 7.18585 19.5568 13.4019 21.2174 21.1803C21.3778 21.9316 21.5652 22.6988 21.7772 23.4789C20.8074 23.7312 19.8711 24.0002 18.9752 24.2864C10.9598 26.8476 5.84082 30.8617 5.84082 35.0254C5.84082 39.3256 11.336 43.6388 19.6847 46.2542C20.3435 46.4605 21.0272 46.6557 21.7317 46.841C21.503 47.6846 21.3041 48.5114 21.1371 49.3178C19.5537 56.9612 20.7902 63.0304 24.7255 65.1107C28.7903 67.259 35.6121 65.0508 42.2548 59.729C42.7798 59.3083 43.3067 58.8622 43.8346 58.3946C44.5187 58.9984 45.2018 59.5699 45.8813 60.1059C52.3155 65.1806 58.6704 67.2297 62.602 65.1436C66.6627 62.9891 67.9824 56.4694 66.2691 48.5371C66.1382 47.9313 65.9859 47.3124 65.8149 46.6825C66.294 46.5527 66.7643 46.4187 67.2229 46.2794C75.9021 43.6438 81.5491 39.383 81.5491 35.0254C81.5491 30.8467 76.265 26.8055 68.0882 24.2257Z" fill="#53C1DE"/>
<path d="M66.2055 43.4658C65.7915 43.5915 65.3668 43.7129 64.9339 43.8306C63.9758 41.0505 62.6826 38.0943 61.1002 35.04C62.6103 32.0585 63.8534 29.14 64.7847 26.378C65.5592 26.5834 66.3109 26.8 67.0352 27.0286C74.0411 29.2391 78.3146 32.5073 78.3146 35.0255C78.3146 37.7079 73.6994 41.19 66.2055 43.4658ZM63.0961 49.113C63.8537 52.6205 63.9619 55.7918 63.4601 58.2709C63.0092 60.4985 62.1024 61.9837 60.9812 62.5785C58.5952 63.8442 53.493 62.199 47.9903 57.8591C47.3595 57.3616 46.7241 56.8304 46.0867 56.2681C48.22 54.1298 50.352 51.6439 52.4328 48.8831C56.0928 48.5855 59.5506 48.0988 62.6863 47.4345C62.8407 48.0054 62.9779 48.5654 63.0961 49.113ZM31.6513 62.3598C29.3202 63.1143 27.4636 63.1359 26.3413 62.5428C23.9532 61.2804 22.9605 56.4075 24.3147 49.8708C24.4698 49.1222 24.6544 48.3533 24.8672 47.5672C27.9685 48.1958 31.401 48.6481 35.0697 48.9207C37.1645 51.6222 39.3582 54.1054 41.5688 56.2796C41.0858 56.707 40.6047 57.1138 40.1263 57.4972C37.1889 59.8504 34.2454 61.52 31.6513 62.3598ZM20.7305 43.4494C17.0389 42.293 13.9902 40.79 11.9005 39.1499C10.0227 37.6761 9.07471 36.2128 9.07471 35.0255C9.07471 32.4989 13.1847 29.2762 20.0396 27.0857C20.8713 26.8199 21.742 26.5694 22.6455 26.3341C23.5929 29.1586 24.8357 32.1116 26.3354 35.0977C24.8162 38.1281 23.5558 41.1282 22.5992 43.9857C21.955 43.816 21.331 43.6374 20.7305 43.4494ZM24.3912 20.6112C22.9684 13.9468 23.9134 8.91949 26.2912 7.65795C28.824 6.31404 34.4247 8.23018 40.3278 13.0341C40.7051 13.3411 41.0839 13.6625 41.4638 13.995C39.2641 16.1598 37.0906 18.6243 35.0143 21.3099C31.4537 21.6124 28.0454 22.0982 24.9117 22.7489C24.7146 22.0225 24.5401 21.3089 24.3912 20.6112ZM57.0483 28.0019C56.2992 26.816 55.5301 25.6581 54.7461 24.5318C57.1617 24.8116 59.476 25.1832 61.6494 25.6378C60.9969 27.5544 60.1837 29.5584 59.2263 31.6127C58.5396 30.4178 57.8132 29.2129 57.0483 28.0019ZM43.7308 16.1134C45.2226 17.5947 46.7166 19.2485 48.186 21.0429C46.7053 20.9788 45.2062 20.9454 43.6947 20.9454C42.1975 20.9454 40.7095 20.978 39.238 21.041C40.7089 19.2633 42.2157 17.6117 43.7308 16.1134ZM30.3281 28.0224C29.5797 29.2117 28.8669 30.41 28.1909 31.6105C27.2491 29.5633 26.4433 27.5502 25.7852 25.6064C27.9452 25.1634 30.2487 24.8011 32.6489 24.5266C31.8538 25.6632 31.0784 26.8297 30.3281 28.0222V28.0224ZM32.718 45.736C30.2382 45.4824 27.9001 45.1388 25.7406 44.708C26.4092 42.7295 27.2328 40.6734 28.1945 38.5821C28.8722 39.7818 29.588 40.9806 30.3409 42.1724H30.341C31.1079 43.3867 31.9025 44.5761 32.718 45.736ZM43.8203 54.1466C42.2874 52.6308 40.7584 50.954 39.2652 49.1504C40.7148 49.2025 42.1927 49.2292 43.6947 49.2292C45.2379 49.2292 46.7633 49.1973 48.2648 49.1361C46.7906 50.9722 45.302 52.6515 43.8203 54.1466ZM59.2572 38.4755C60.2691 40.5894 61.1221 42.6347 61.7994 44.5795C59.6043 45.0385 57.2343 45.4082 54.7372 45.6828C55.5231 44.5414 56.2989 43.3636 57.0613 42.1521C57.8325 40.9264 58.5648 39.6988 59.2572 38.4755ZM54.2598 40.6712C53.0763 42.5519 51.8613 44.3472 50.6278 46.0419C48.3813 46.1891 46.0603 46.2649 43.6947 46.2649C41.3387 46.2649 39.047 46.1979 36.8402 46.0666C35.557 44.3497 34.3156 42.549 33.1397 40.6874H33.1399C31.9671 38.8308 30.8877 36.9585 29.9096 35.0967C30.8874 33.2306 31.964 31.3562 33.1301 29.5029L33.1298 29.5033C34.299 27.6451 35.5295 25.8532 36.8008 24.147C39.0524 23.991 41.3612 23.9096 43.6946 23.9096H43.6947C46.0386 23.9096 48.3504 23.9917 50.6013 24.149C51.8532 25.8427 53.0754 27.6288 54.2491 29.4872C55.4362 31.3666 56.5267 33.2285 57.5128 35.0546C56.5296 36.912 55.4416 38.7927 54.2598 40.6712ZM60.9316 7.56977C63.4668 8.90973 64.4527 14.3138 62.8598 21.4002C62.7582 21.8523 62.6438 22.3129 62.5196 22.7796C59.3786 22.1154 55.9678 21.6211 52.3968 21.3141C50.3166 18.599 48.1608 16.1306 45.997 13.9936C46.5787 13.4807 47.1597 12.9916 47.7382 12.5301C53.3275 8.07196 58.5514 6.31182 60.9316 7.56977Z" fill="white"/>
<path d="M43.696 28.8296C47.4297 28.8296 50.4565 31.6036 50.4565 35.0257C50.4565 38.4477 47.4297 41.2218 43.696 41.2218C39.9624 41.2218 36.9355 38.4477 36.9355 35.0257C36.9355 31.6036 39.9624 28.8296 43.696 28.8296Z" fill="#53C1DE"/>
</svg>
