<svg width="82" height="71" viewBox="0 0 82 71" fill="none" xmlns="http://www.w3.org/2000/svg">
<path d="M0.987061 35.3149V70.6299H41.2759H81.5648V35.3149V1.52588e-05H41.2759H0.987061V35.3149Z" fill="#007ACC"/>
<path d="M18.8054 35.5493L18.7798 38.4418H24.0237H29.2677V51.5027L29.2677 64.5636H32.9768H36.6859V51.5027V38.4418H41.9299H47.1738V35.6054C47.1738 34.0358 47.1355 32.7241 47.0843 32.6905C47.0459 32.6456 40.6637 32.6232 32.9256 32.6344L18.8437 32.668L18.8054 35.5493Z" fill="white"/>
<path d="M66.0055 32.5858C68.052 33.0343 69.6124 33.8303 71.0449 35.1308C71.7867 35.8258 72.8866 37.0927 72.9762 37.3954C73.0017 37.4851 69.4972 39.5479 67.3741 40.7027C67.2973 40.7475 66.9904 40.456 66.6451 40.0076C65.6091 38.6847 64.5219 38.1129 62.8592 38.012C60.4163 37.8663 58.8431 38.9874 58.8559 40.8596C58.8559 41.409 58.9454 41.7341 59.2012 42.1825C59.7384 43.1579 60.736 43.7409 63.8696 44.9292C69.6379 47.1042 72.1064 48.5392 73.6412 50.5796C75.3551 52.8555 75.7388 56.4879 74.5749 59.1898C73.2959 62.1271 70.124 64.1226 65.6602 64.7841C64.2789 64.9971 61.0046 64.9635 59.521 64.728C56.2851 64.2235 53.2154 62.8221 51.3225 60.9835C50.5807 60.266 49.1354 58.3938 49.2249 58.2592C49.2633 58.2144 49.5958 58.035 49.9667 57.8444C50.3249 57.665 51.6806 56.9812 52.9596 56.3309L55.2746 55.1538L55.7607 55.7816C56.4385 56.6897 57.9222 57.9341 58.8175 58.3489C61.3883 59.5373 64.9184 59.3691 66.6578 58.0014C67.3997 57.4072 67.7066 56.7906 67.7066 55.8825C67.7066 55.0641 67.5915 54.7053 67.1055 54.0887C66.4788 53.3039 65.1998 52.6425 61.5674 51.2635C57.4106 49.694 55.62 48.7186 53.9828 47.1715C53.0364 46.2746 52.1411 44.8396 51.7702 43.64C51.4632 42.6422 51.3864 40.1421 51.6295 39.1331C52.4864 35.6128 55.5177 33.1576 59.8919 32.4289C61.3116 32.1935 64.6114 32.2831 66.0055 32.5858Z" fill="white"/>
</svg>
