<svg width="428" height="120" viewBox="0 0 428 120" fill="none" xmlns="http://www.w3.org/2000/svg">
<rect width="428" height="120" fill="#F58219"/>
<path d="M155.651 69.288C153.251 69.288 151.379 68.624 150.035 67.296C148.707 65.968 148.043 64.072 148.043 61.608V52.2H151.931V61.464C151.931 64.472 153.179 65.976 155.675 65.976C156.891 65.976 157.819 65.616 158.459 64.896C159.099 64.16 159.419 63.016 159.419 61.464V52.2H163.259V61.608C163.259 64.072 162.587 65.968 161.243 67.296C159.915 68.624 158.051 69.288 155.651 69.288ZM172.621 69.288C171.293 69.288 170.005 69.112 168.757 68.76C167.525 68.392 166.533 67.92 165.781 67.344L167.101 64.416C167.821 64.944 168.677 65.368 169.669 65.688C170.661 66.008 171.653 66.168 172.645 66.168C173.749 66.168 174.565 66.008 175.093 65.688C175.621 65.352 175.885 64.912 175.885 64.368C175.885 63.968 175.725 63.64 175.405 63.384C175.101 63.112 174.701 62.896 174.205 62.736C173.725 62.576 173.069 62.4 172.237 62.208C170.957 61.904 169.909 61.6 169.093 61.296C168.277 60.992 167.573 60.504 166.981 59.832C166.405 59.16 166.117 58.264 166.117 57.144C166.117 56.168 166.381 55.288 166.909 54.504C167.437 53.704 168.229 53.072 169.285 52.608C170.357 52.144 171.661 51.912 173.197 51.912C174.269 51.912 175.317 52.04 176.341 52.296C177.365 52.552 178.261 52.92 179.029 53.4L177.829 56.352C176.277 55.472 174.725 55.032 173.173 55.032C172.085 55.032 171.277 55.208 170.749 55.56C170.237 55.912 169.981 56.376 169.981 56.952C169.981 57.528 170.277 57.96 170.869 58.248C171.477 58.52 172.397 58.792 173.629 59.064C174.909 59.368 175.957 59.672 176.773 59.976C177.589 60.28 178.285 60.76 178.861 61.416C179.453 62.072 179.749 62.96 179.749 64.08C179.749 65.04 179.477 65.92 178.933 66.72C178.405 67.504 177.605 68.128 176.533 68.592C175.461 69.056 174.157 69.288 172.621 69.288ZM195.414 65.88V69H182.406V52.2H195.102V55.32H186.27V58.968H194.07V61.992H186.27V65.88H195.414ZM209.212 69L205.972 64.32H205.78H202.396V69H198.508V52.2H205.78C207.268 52.2 208.556 52.448 209.644 52.944C210.748 53.44 211.596 54.144 212.188 55.056C212.78 55.968 213.076 57.048 213.076 58.296C213.076 59.544 212.772 60.624 212.164 61.536C211.572 62.432 210.724 63.12 209.62 63.6L213.388 69H209.212ZM209.14 58.296C209.14 57.352 208.836 56.632 208.228 56.136C207.62 55.624 206.732 55.368 205.564 55.368H202.396V61.224H205.564C206.732 61.224 207.62 60.968 208.228 60.456C208.836 59.944 209.14 59.224 209.14 58.296ZM216.156 52.2H223.788C225.612 52.2 227.22 52.552 228.612 53.256C230.02 53.944 231.108 54.92 231.876 56.184C232.66 57.448 233.052 58.92 233.052 60.6C233.052 62.28 232.66 63.752 231.876 65.016C231.108 66.28 230.02 67.264 228.612 67.968C227.22 68.656 225.612 69 223.788 69H216.156V52.2ZM223.596 65.808C225.276 65.808 226.612 65.344 227.604 64.416C228.612 63.472 229.116 62.2 229.116 60.6C229.116 59 228.612 57.736 227.604 56.808C226.612 55.864 225.276 55.392 223.596 55.392H220.044V65.808H223.596ZM248.992 65.88V69H235.984V52.2H248.68V55.32H239.848V58.968H247.648V61.992H239.848V65.88H248.992ZM259.358 52.2C260.846 52.2 262.134 52.448 263.222 52.944C264.326 53.44 265.174 54.144 265.766 55.056C266.358 55.968 266.654 57.048 266.654 58.296C266.654 59.528 266.358 60.608 265.766 61.536C265.174 62.448 264.326 63.152 263.222 63.648C262.134 64.128 260.846 64.368 259.358 64.368H255.974V69H252.086V52.2H259.358ZM259.142 61.2C260.31 61.2 261.198 60.952 261.806 60.456C262.414 59.944 262.718 59.224 262.718 58.296C262.718 57.352 262.414 56.632 261.806 56.136C261.198 55.624 260.31 55.368 259.142 55.368H255.974V61.2H259.142ZM272.441 55.368H267.065V52.2H281.705V55.368H276.329V69H272.441V55.368Z" fill="white"/>
</svg>
