<svg width="360" height="120" viewBox="0 0 360 120" fill="none" xmlns="http://www.w3.org/2000/svg">
<rect width="360" height="120" fill="#F58219"/>
<path d="M136.238 66.216C134.438 66.216 133.034 65.718 132.026 64.722C131.03 63.726 130.532 62.304 130.532 60.456V53.4H133.448V60.348C133.448 62.604 134.384 63.732 136.256 63.732C137.168 63.732 137.864 63.462 138.344 62.922C138.824 62.37 139.064 61.512 139.064 60.348V53.4H141.944V60.456C141.944 62.304 141.44 63.726 140.432 64.722C139.436 65.718 138.038 66.216 136.238 66.216ZM148.966 66.216C147.97 66.216 147.004 66.084 146.068 65.82C145.144 65.544 144.4 65.19 143.836 64.758L144.826 62.562C145.366 62.958 146.008 63.276 146.752 63.516C147.496 63.756 148.24 63.876 148.984 63.876C149.812 63.876 150.424 63.756 150.82 63.516C151.216 63.264 151.414 62.934 151.414 62.526C151.414 62.226 151.294 61.98 151.054 61.788C150.826 61.584 150.526 61.422 150.154 61.302C149.794 61.182 149.302 61.05 148.678 60.906C147.718 60.678 146.932 60.45 146.32 60.222C145.708 59.994 145.18 59.628 144.736 59.124C144.304 58.62 144.088 57.948 144.088 57.108C144.088 56.376 144.286 55.716 144.682 55.128C145.078 54.528 145.672 54.054 146.464 53.706C147.268 53.358 148.246 53.184 149.398 53.184C150.202 53.184 150.988 53.28 151.756 53.472C152.524 53.664 153.196 53.94 153.772 54.3L152.872 56.514C151.708 55.854 150.544 55.524 149.38 55.524C148.564 55.524 147.958 55.656 147.562 55.92C147.178 56.184 146.986 56.532 146.986 56.964C146.986 57.396 147.208 57.72 147.652 57.936C148.108 58.14 148.798 58.344 149.722 58.548C150.682 58.776 151.468 59.004 152.08 59.232C152.692 59.46 153.214 59.82 153.646 60.312C154.09 60.804 154.312 61.47 154.312 62.31C154.312 63.03 154.108 63.69 153.7 64.29C153.304 64.878 152.704 65.346 151.9 65.694C151.096 66.042 150.118 66.216 148.966 66.216ZM166.061 63.66V66H156.305V53.4H165.827V55.74H159.203V58.476H165.053V60.744H159.203V63.66H166.061ZM176.409 66L173.979 62.49H173.835H171.297V66H168.381V53.4H173.835C174.951 53.4 175.917 53.586 176.733 53.958C177.561 54.33 178.197 54.858 178.641 55.542C179.085 56.226 179.307 57.036 179.307 57.972C179.307 58.908 179.079 59.718 178.623 60.402C178.179 61.074 177.543 61.59 176.715 61.95L179.541 66H176.409ZM176.355 57.972C176.355 57.264 176.127 56.724 175.671 56.352C175.215 55.968 174.549 55.776 173.673 55.776H171.297V60.168H173.673C174.549 60.168 175.215 59.976 175.671 59.592C176.127 59.208 176.355 58.668 176.355 57.972ZM181.617 53.4H187.341C188.709 53.4 189.915 53.664 190.959 54.192C192.015 54.708 192.831 55.44 193.407 56.388C193.995 57.336 194.289 58.44 194.289 59.7C194.289 60.96 193.995 62.064 193.407 63.012C192.831 63.96 192.015 64.698 190.959 65.226C189.915 65.742 188.709 66 187.341 66H181.617V53.4ZM187.197 63.606C188.457 63.606 189.459 63.258 190.203 62.562C190.959 61.854 191.337 60.9 191.337 59.7C191.337 58.5 190.959 57.552 190.203 56.856C189.459 56.148 188.457 55.794 187.197 55.794H184.533V63.606H187.197ZM206.244 63.66V66H196.488V53.4H206.01V55.74H199.386V58.476H205.236V60.744H199.386V63.66H206.244ZM214.018 53.4C215.134 53.4 216.1 53.586 216.916 53.958C217.744 54.33 218.38 54.858 218.824 55.542C219.268 56.226 219.49 57.036 219.49 57.972C219.49 58.896 219.268 59.706 218.824 60.402C218.38 61.086 217.744 61.614 216.916 61.986C216.1 62.346 215.134 62.526 214.018 62.526H211.48V66H208.564V53.4H214.018ZM213.856 60.15C214.732 60.15 215.398 59.964 215.854 59.592C216.31 59.208 216.538 58.668 216.538 57.972C216.538 57.264 216.31 56.724 215.854 56.352C215.398 55.968 214.732 55.776 213.856 55.776H211.48V60.15H213.856ZM223.831 55.776H219.799V53.4H230.779V55.776H226.747V66H223.831V55.776Z" fill="white"/>
</svg>
